<svg width="106" height="36" viewBox="0 0 106 36" fill="none" xmlns="http://www.w3.org/2000/svg">
<path d="M1.01127 30.7106L0.727173 4.49214C0.727173 3.84276 0.984216 3.28809 1.4983 2.82812C2.03945 2.34109 2.64823 2.00287 3.32466 1.81347C4.0011 1.62407 4.63694 1.59701 5.2322 1.7323C5.82746 1.86758 6.20626 2.21933 6.3686 2.78753C6.88269 3.8157 7.23443 5.23621 7.42383 7.04904C7.77558 10.4312 7.95145 13.3534 7.95145 15.8156C8.22202 16.2485 8.56024 16.4514 8.96609 16.4244C10.1296 13.5834 11.4148 10.8506 12.8217 8.22603C14.2287 5.60148 15.1351 3.92393 15.541 3.19339C15.9469 2.43579 16.4339 1.90817 17.0021 1.61054C17.5703 1.31291 18.1791 1.12351 18.8284 1.04234C20.2354 0.879996 21.5612 1.12351 22.8059 1.77288C23.7529 2.09757 24.3075 2.65224 24.4699 3.4369C25.0922 4.68153 24.6728 6.11557 23.2117 7.739C21.5071 10.4447 19.789 13.4345 18.0573 16.7085C14.7563 23.0128 12.6594 26.8955 11.7665 28.3566C10.8736 29.8177 10.2243 30.8594 9.81839 31.4817C9.41254 32.077 8.95257 32.5775 8.43848 32.9834C7.51853 33.7139 6.40919 34.0116 5.11044 33.8763C2.83764 33.7951 1.51183 33.0781 1.13303 31.7252C1.05186 31.3464 1.01127 31.0082 1.01127 30.7106Z" fill="#8D7EFB"/>
<path d="M27.8648 26.9361C29.4341 27.0984 30.5976 27.1796 31.3552 27.1796C32.1399 27.1796 33.3168 27.0714 34.8862 26.8549C35.3732 27.0173 35.6573 27.2202 35.7385 27.4637C35.8196 27.7072 35.8467 27.9643 35.8196 28.2348C35.7926 28.4784 35.8061 28.7219 35.8602 28.9654C35.9143 29.2089 36.1714 29.4118 36.6314 29.5742C36.8749 29.6553 36.9425 29.8989 36.8343 30.3047C36.7531 30.6835 36.5367 31.1029 36.1849 31.5629C35.292 32.7263 34.2368 33.5381 33.0192 33.998C31.0711 34.4851 29.5424 34.7692 28.433 34.8503C26.5931 34.9856 24.5909 34.918 22.4263 34.6474C20.0453 34.2145 18.8953 33.2269 18.9765 31.6846C18.9765 26.0026 20.2212 20.2935 22.7104 14.5574C23.5221 12.6905 24.4421 10.7288 25.4703 8.67247C25.6867 8.23956 25.8085 7.75253 25.8355 7.21138C25.8896 6.67024 25.9302 6.14262 25.9573 5.62854C25.9843 5.11445 26.0655 4.65448 26.2008 4.24862C26.3361 3.84276 26.6202 3.55866 27.0531 3.39632C32.681 1.15057 37.1319 0.284738 40.4058 0.798825C41.5422 0.825882 42.2863 1.21821 42.6381 1.97581C43.0169 2.70636 43.0574 3.5316 42.7598 4.45155C42.4892 5.37149 41.9346 6.23732 41.0958 7.04904C40.2841 7.86076 39.2559 8.36132 38.0113 8.55072C36.4149 9.01069 35.4408 9.32185 35.0891 9.48419C34.4127 9.80888 33.9256 10.2418 33.628 10.7829C33.2492 11.3782 32.8975 11.9464 32.5728 12.4875C32.2481 13.0287 32.0181 13.6104 31.8828 14.2327L31.7205 15.1256C32.2346 15.3691 32.8569 15.4503 33.5874 15.3691C34.345 15.2609 35.035 15.1662 35.6573 15.085C36.3067 14.9768 36.8208 14.9633 37.1996 15.0444C37.6054 15.1256 37.6866 15.5315 37.4431 16.262C37.2266 16.9655 36.8072 17.7637 36.1849 18.6566C35.5896 19.5495 34.7373 20.1988 33.628 20.6047C32.9245 20.74 32.4375 20.8482 32.1669 20.9294C31.9234 20.9835 31.734 21.0241 31.5987 21.0511C31.4093 21.0782 30.8682 21.1188 29.9753 21.1729C28.7036 23.3375 27.9325 25.015 27.6619 26.2055C27.5537 26.6926 27.6213 26.9361 27.8648 26.9361Z" fill="#8D7EFB"/>
<path d="M54.1001 21.6599C53.3695 23.7704 52.6254 25.7997 51.8678 27.7478C51.1102 29.6959 50.4744 31.1705 49.9603 32.1717C49.4733 33.1998 49.0404 33.9033 48.6616 34.2821C48.2828 34.6609 47.8904 34.918 47.4846 35.0533C47.1058 35.1885 46.7134 35.2427 46.3076 35.2156C45.9288 35.1885 45.5364 35.1615 45.1306 35.1344C42.8578 34.7827 42.1543 33.1457 43.0201 30.2235C43.5883 27.8966 44.0483 26.0026 44.4 24.5415C44.7518 23.0534 45.0359 21.8358 45.2523 20.8888C45.4959 19.9147 45.6988 19.1166 45.8611 18.4942C46.0235 17.8449 46.1993 17.209 46.3887 16.5867C46.5781 15.9644 46.8081 15.2609 47.0787 14.4762C47.3763 13.6916 47.7551 12.6499 48.2151 11.3511C47.1869 11.4864 46.267 11.3782 45.4553 11.0265C44.2648 10.5124 43.7777 9.40302 43.9942 7.69841C44.1024 6.91376 44.5218 6.18321 45.2523 5.50678C45.6311 5.15504 46.0776 4.77623 46.5917 4.37038C47.6469 3.5316 49.7438 2.63872 52.8825 1.69171C56.1293 0.717654 58.9162 0.25768 61.2432 0.311794C61.8655 0.203567 62.5013 0.284739 63.1507 0.555311C63.8271 0.798826 64.3683 1.13704 64.7741 1.56996C65.18 2.00287 65.3829 2.47637 65.3829 2.99046C65.41 3.50455 65.0853 3.96452 64.4089 4.37038C64.0842 4.58683 63.8542 4.95211 63.7189 5.46619C63.5836 5.95322 63.4348 6.48084 63.2724 7.04904C63.1101 7.59019 62.8666 8.09074 62.5419 8.55072C62.2443 9.01069 61.7572 9.28126 61.0808 9.36243C60.7291 9.55183 60.2285 9.68712 59.5791 9.76829C58.9568 9.84946 58.5374 9.91711 58.321 9.97122C58.1316 9.99828 58.0233 10.0659 57.9963 10.1741C57.5093 11.6082 56.9275 13.3534 56.2511 15.4097C55.5747 17.439 54.8577 19.5224 54.1001 21.6599ZM48.621 10.9047C48.5669 10.9047 48.5398 10.9182 48.5398 10.9453C48.5398 10.9453 48.5669 10.9453 48.621 10.9453V10.9047Z" fill="#8D7EFB"/>
<path d="M68.0691 27.046C68.3791 27.046 68.5991 27.131 68.7291 27.301C68.8591 27.461 68.9241 27.631 68.9241 27.811C68.9241 28.061 68.7991 28.326 68.5491 28.606C68.2991 28.886 67.9741 29.146 67.5741 29.386C67.1841 29.616 66.7641 29.806 66.3141 29.956C65.8641 30.106 65.4341 30.181 65.0241 30.181C64.4141 30.181 63.8291 30.016 63.2691 29.686C62.7191 29.346 62.2691 28.871 61.9191 28.261C61.5791 27.651 61.4091 26.926 61.4091 26.086C61.4091 25.396 61.5391 24.711 61.7991 24.031C62.0691 23.351 62.4241 22.696 62.8641 22.066C63.3141 21.436 63.8041 20.851 64.3341 20.311C64.8741 19.771 65.4141 19.301 65.9541 18.901C66.5041 18.501 67.0091 18.191 67.4691 17.971C67.9291 17.741 68.2991 17.626 68.5791 17.626C68.9291 17.626 69.1891 17.716 69.3591 17.896C69.5391 18.066 69.6291 18.306 69.6291 18.616C69.6291 18.866 69.5791 19.061 69.4791 19.201C69.3891 19.331 69.2441 19.446 69.0441 19.546C68.4041 19.876 67.7541 20.276 67.0941 20.746C66.4441 21.216 65.8491 21.736 65.3091 22.306C64.7691 22.866 64.3341 23.456 64.0041 24.076C63.6741 24.696 63.5091 25.326 63.5091 25.966C63.5091 26.666 63.6491 27.196 63.9291 27.556C64.2091 27.916 64.5891 28.096 65.0691 28.096C65.3091 28.096 65.5691 28.046 65.8491 27.946C66.1291 27.836 66.4041 27.711 66.6741 27.571C66.9541 27.431 67.2141 27.311 67.4541 27.211C67.7041 27.101 67.9091 27.046 68.0691 27.046ZM72.2333 30.301C71.9133 30.301 71.6233 30.211 71.3633 30.031C71.1033 29.861 70.8983 29.636 70.7483 29.356C70.5983 29.066 70.5233 28.756 70.5233 28.426C70.5233 27.806 70.6583 27.201 70.9283 26.611C71.2083 26.021 71.5733 25.461 72.0233 24.931C72.4733 24.401 72.9633 23.916 73.4933 23.476C74.0333 23.026 74.5683 22.641 75.0983 22.321C75.6383 22.001 76.1283 21.751 76.5683 21.571C77.0183 21.391 77.3683 21.301 77.6183 21.301C77.9083 21.301 78.1433 21.366 78.3233 21.496C78.5133 21.616 78.6083 21.806 78.6083 22.066C78.6083 22.146 78.5883 22.211 78.5483 22.261C78.6783 22.291 78.7833 22.366 78.8633 22.486C78.9433 22.606 78.9833 22.786 78.9833 23.026C78.9833 23.126 78.9583 23.386 78.9083 23.806C78.8583 24.226 78.8033 24.736 78.7433 25.336C78.6933 25.936 78.6683 26.561 78.6683 27.211C78.6683 27.311 78.6833 27.401 78.7133 27.481C78.7433 27.551 78.8083 27.586 78.9083 27.586C79.3083 27.586 79.7133 27.506 80.1233 27.346C80.5433 27.176 80.9483 26.971 81.3383 26.731C81.7383 26.481 82.0983 26.236 82.4183 25.996C82.7483 25.746 83.0233 25.541 83.2433 25.381C83.4733 25.211 83.6233 25.126 83.6933 25.126C84.0333 25.126 84.2033 25.296 84.2033 25.636C84.2033 25.726 84.0933 25.916 83.8733 26.206C83.6633 26.486 83.3733 26.811 83.0033 27.181C82.6333 27.541 82.2183 27.901 81.7583 28.261C81.3083 28.611 80.8383 28.901 80.3483 29.131C79.8683 29.361 79.4033 29.476 78.9533 29.476C78.4033 29.476 77.9833 29.346 77.6933 29.086C77.4133 28.826 77.2133 28.476 77.0933 28.036C76.9833 27.586 76.9233 27.081 76.9133 26.521C76.4033 27.251 75.8733 27.901 75.3233 28.471C74.7833 29.031 74.2483 29.476 73.7183 29.806C73.1883 30.136 72.6933 30.301 72.2333 30.301ZM77.5433 22.786C76.5633 23.256 75.6833 23.796 74.9033 24.406C74.1233 25.006 73.5033 25.636 73.0433 26.296C72.5933 26.956 72.3683 27.591 72.3683 28.201C72.3683 28.371 72.4483 28.456 72.6083 28.456C72.7983 28.456 73.0483 28.346 73.3583 28.126C73.6783 27.906 74.0233 27.616 74.3933 27.256C74.7633 26.886 75.1333 26.476 75.5033 26.026C75.8733 25.566 76.2183 25.096 76.5383 24.616C76.8583 24.136 77.1133 23.676 77.3033 23.236C77.3733 23.076 77.4533 22.926 77.5433 22.786ZM83.5177 30.391C83.2677 30.391 83.0527 30.301 82.8727 30.121C82.7027 29.941 82.6177 29.681 82.6177 29.341C82.6177 29.191 82.6377 28.946 82.6777 28.606C82.7277 28.256 82.7877 27.856 82.8577 27.406C82.9377 26.956 83.0127 26.486 83.0827 25.996C83.1627 25.506 83.2277 25.041 83.2777 24.601C83.3377 24.161 83.3777 23.786 83.3977 23.476C83.4177 23.096 83.5177 22.826 83.6977 22.666C83.8777 22.496 84.0927 22.411 84.3427 22.411C84.5427 22.411 84.7227 22.461 84.8827 22.561C85.0527 22.651 85.1577 22.846 85.1977 23.146C85.2477 23.436 85.2527 23.856 85.2127 24.406C85.6527 23.606 86.0977 22.891 86.5477 22.261C87.0077 21.631 87.4877 21.131 87.9877 20.761C88.8177 20.131 89.5677 19.816 90.2377 19.816C90.6177 19.816 90.8677 19.901 90.9877 20.071C91.1077 20.241 91.1677 20.416 91.1677 20.596C91.1677 20.716 91.1377 20.826 91.0777 20.926C91.0277 21.026 90.9177 21.131 90.7477 21.241C90.5777 21.351 90.3177 21.496 89.9677 21.676C89.4977 21.916 89.0327 22.231 88.5727 22.621C88.1227 23.011 87.6727 23.511 87.2227 24.121C86.7727 24.731 86.3177 25.481 85.8577 26.371C85.3977 27.261 84.9227 28.321 84.4327 29.551C84.3427 29.891 84.2127 30.116 84.0427 30.226C83.8827 30.336 83.7077 30.391 83.5177 30.391ZM92.1592 30.241C91.5392 30.241 91.0392 30.026 90.6592 29.596C90.2792 29.156 90.0892 28.451 90.0892 27.481C90.0892 26.861 90.1592 26.241 90.2992 25.621C90.4492 24.991 90.6542 24.396 90.9142 23.836C91.1842 23.266 91.4942 22.761 91.8442 22.321C92.2042 21.881 92.5992 21.536 93.0292 21.286C93.4592 21.026 93.9042 20.896 94.3642 20.896C95.1442 20.896 95.7542 21.106 96.1942 21.526C96.6342 21.946 96.8542 22.481 96.8542 23.131C96.8542 23.631 96.7142 24.086 96.4342 24.496C96.1642 24.896 95.7942 25.256 95.3242 25.576C94.8542 25.896 94.3292 26.186 93.7492 26.446C93.1692 26.706 92.5742 26.941 91.9642 27.151C91.9142 27.511 91.8892 27.831 91.8892 28.111C91.8892 28.281 91.9842 28.366 92.1742 28.366C92.6242 28.366 93.1042 28.296 93.6142 28.156C94.1342 28.006 94.6592 27.816 95.1892 27.586C95.7192 27.346 96.2292 27.101 96.7192 26.851C97.2092 26.591 97.6542 26.346 98.0542 26.116C98.4642 25.876 98.7992 25.686 99.0592 25.546C99.3292 25.396 99.5042 25.321 99.5842 25.321C99.8042 25.321 99.9642 25.386 100.064 25.516C100.164 25.646 100.214 25.786 100.214 25.936C100.214 26.006 100.079 26.161 99.8092 26.401C99.5492 26.641 99.1892 26.926 98.7292 27.256C98.2792 27.576 97.7692 27.911 97.1992 28.261C96.6392 28.601 96.0542 28.926 95.4442 29.236C94.8442 29.536 94.2592 29.776 93.6892 29.956C93.1292 30.146 92.6192 30.241 92.1592 30.241ZM92.2192 25.816C92.6292 25.576 93.0342 25.326 93.4342 25.066C93.8442 24.796 94.1842 24.496 94.4542 24.166C94.7242 23.826 94.8592 23.431 94.8592 22.981C94.8592 22.851 94.8242 22.766 94.7542 22.726C94.6842 22.676 94.5842 22.651 94.4542 22.651C94.1042 22.651 93.7842 22.806 93.4942 23.116C93.2142 23.426 92.9642 23.826 92.7442 24.316C92.5342 24.796 92.3592 25.296 92.2192 25.816Z" fill="#544864"/>
</svg>
