<svg width="416" height="704" viewBox="0 0 416 704" fill="none" xmlns="http://www.w3.org/2000/svg">
<path d="M351.042 182.062C351.771 180.529 347.168 158.397 345.142 145.945C344.561 142.376 341.199 139.75 337.619 140.27C335.919 140.517 334.398 141.456 333.415 142.865L330.367 147.235C327.504 151.34 323.101 154.111 318.162 154.916L312.939 155.768C308.088 156.559 303.119 156.187 298.44 154.681L286.792 150.933C280.289 148.683 276.242 142.195 277.08 135.365L277.71 130.23C278.32 125.267 277.137 120.25 274.376 116.081L269.443 108.634C264.709 101.487 262.106 93.1408 261.936 84.57L261.849 80.1863C261.735 74.4173 260.715 68.7022 258.825 63.2503C255.673 54.156 250.191 46.0475 242.926 39.7338L238.302 35.715C238.025 35.4749 237.773 35.2088 237.547 34.9203C234.686 31.2586 237.161 25.8945 241.803 25.6946L263.251 24.771C264.126 24.7334 265.001 24.7643 265.869 24.8631M265.869 24.8631L273.266 38.7782C274.481 41.0633 276.734 42.612 279.303 42.9273L279.972 43.0094C283.372 43.4267 286.587 41.3631 287.624 38.0981C288.859 34.2102 286.58 30.0821 282.633 29.0545L268.195 25.2961C267.43 25.0969 266.652 24.9524 265.869 24.8631ZM265.869 24.8631L261.041 15.7822C259.089 11.6834 262.543 7.07837 267.025 7.80644L287.756 11.1745L299.669 12.6366C309.002 13.782 318.471 12.3985 327.086 8.63082C332.599 6.21956 338.486 4.77468 344.49 4.35938L345.622 4.28103C355.941 3.56721 366.266 5.57753 375.563 10.1106L378.99 11.7816C383.162 13.8157 387.126 16.2461 390.857 19.0065C396.901 23.4775 404.081 28.6933 405.478 29.3577C406.254 29.7266 408.591 31.0013 411.443 32.5828C419.53 37.0684 428.599 39.5099 437.847 39.5562M350.101 174.752C351.973 191.919 352.031 217.64 351.026 240.721M351.026 240.721C349.886 266.94 347.375 289.752 344.601 292.752C334.024 304.186 304.654 305.651 281.436 304.809C264.006 304.177 251.84 288.339 254.003 271.033C255.745 257.1 266.208 246.454 279.157 243.768M351.026 240.721C345.464 232.382 337.895 225.349 328.774 220.384L325.518 218.612C323.248 217.376 320.837 216.419 318.338 215.759L313.84 214.572C298.677 210.571 283.218 219.936 279.743 235.227C279.106 238.03 278.909 240.911 279.157 243.768M351.026 240.721C357.803 250.88 361.601 262.975 361.601 275.626V286.398C361.601 303.216 355.243 317.073 339.664 323.408C329.038 327.73 318.601 333.611 318.601 342.752C318.601 357.726 345.911 373.972 342.773 388.614L342.353 390.578C342.185 391.36 341.96 392.128 341.68 392.876L330.101 423.752C324.89 441.992 325.311 461.381 331.309 479.378L334.101 487.752L342.101 507.752L347.15 520.226C349.446 525.898 351.226 531.766 352.47 537.758L356.253 555.985C359.66 572.401 356.01 589.494 346.193 603.086L332.605 621.9M332.605 621.9L328.749 627.239C315.53 645.541 288.82 647.043 273.633 630.338L265.475 621.364C258.358 613.535 258.023 601.681 264.687 593.462C273.807 582.214 291.229 583.067 299.206 595.154L307.328 607.46C312.857 615.838 321.974 621.16 331.988 621.857L332.605 621.9ZM332.605 621.9L361.86 623.935C369.053 624.435 375.342 628.966 378.094 635.63C381.107 642.926 379.293 651.325 373.537 656.727L364.557 665.155C355.858 673.318 343.607 676.503 332.033 673.61C319.99 670.599 307.253 674.175 298.536 683.014L296.196 685.388C284.626 697.12 267.179 700.68 251.592 695.335C237.66 690.557 221.647 685.752 213.601 685.752C192.362 685.752 179.757 695.741 169.087 699.168C152.523 704.488 141.299 682.049 142.005 664.665C142.689 647.831 149.882 633.837 153.601 627.752M279.157 243.768C279.203 244.297 279.264 244.825 279.341 245.351L280.311 252.037C281.987 263.579 290.687 272.849 302.101 275.252C310.187 276.967 317.56 270.214 316.559 262.008L316.483 261.385C316.232 259.329 315.474 257.367 314.276 255.676L312.905 253.741C309.512 248.95 304.336 245.724 298.541 244.788L290.713 243.523C286.755 242.883 282.855 243.001 279.157 243.768ZM15.0444 661.719L14.0845 640.094L9.33533 611.037L6.49709 595.014C4.86613 585.806 4.12017 576.463 4.2694 567.113C4.46564 554.817 6.20864 542.595 9.45728 530.734L13.5997 515.611L21.3467 496.985C22.4781 494.264 23.8232 491.638 25.3692 489.13C28.3048 484.367 31.9395 480.073 36.1516 476.391L39.3466 473.598C44.3042 469.265 49.835 465.634 55.7831 462.81L63.8689 458.97C64.6587 458.595 65.4979 458.335 66.3612 458.196C70.1272 457.593 73.6251 459.348 75.5288 462.254M75.5288 462.254L73.6486 463.029C68.0427 465.342 62.7809 468.413 58.0105 472.157C49.5993 478.758 42.707 487.195 37.6108 496.594C36.5624 498.528 35.7578 500.281 35.217 502.351C33.2463 509.895 18.3545 553.453 18.2309 571.7C18.2151 574.039 13.3828 599.546 28.2536 604.267C37.176 607.1 40.9597 605.746 59.8768 597.219C63.2367 595.704 82.4186 583.722 89.091 573.671C90.5971 571.402 91.0126 568.652 91.1429 565.932C91.4485 559.552 89.6996 553.243 86.1532 547.93L77.2408 534.58C74.5717 530.582 72.5247 526.202 71.1696 521.59L70.9411 520.812C67.9465 510.619 68.6303 499.698 72.8729 489.959L74.7371 485.679C75.5881 483.726 76.095 481.64 76.2354 479.514L77.0027 467.892C77.1409 465.799 76.5761 463.852 75.5288 462.254ZM75.5288 462.254L78.5392 461.012C84.9433 458.37 91.6044 456.401 98.4154 455.135L112.14 452.584C115.59 451.943 119.131 451.966 122.572 452.652C129.228 453.979 135.161 457.713 139.237 463.14L141.646 466.347C149.361 476.621 161.738 482.312 174.56 481.481L179.285 481.174L212.128 478.585L222.172 477.127C222.953 477.013 223.741 476.962 224.53 476.974C233.159 477.105 239.859 484.539 239.094 493.135L237.961 505.872L237.685 507.255C234.527 523.097 226.73 537.642 215.283 549.04C210.35 553.954 204.806 558.214 198.788 561.717L180.425 572.407L177.804 574.157C170.183 579.244 165.977 588.11 166.857 597.23C167.344 602.282 166.274 607.362 163.791 611.788L152.889 631.22" stroke="url(#paint0_diamond_1_6)" stroke-width="7" stroke-linecap="round"/>
<defs>
<radialGradient id="paint0_diamond_1_6" cx="0" cy="0" r="1" gradientUnits="userSpaceOnUse" gradientTransform="translate(59.8865 755.946) rotate(-60.4072) scale(939.136 426.715)">
<stop stop-color="#A259FF"/>
<stop offset="0.333333" stop-color="#B77EFF"/>
<stop offset="0.666667" stop-color="#9999FF"/>
<stop offset="1" stop-color="#6464FC"/>
</radialGradient>
</defs>
</svg>
